<?xml version="1.0" encoding="UTF-8"?>
<svg id="Layer_2" data-name="Layer 2" xmlns="http://www.w3.org/2000/svg" viewBox="0 0 1572.76 930.78">
  <defs>
    <style>
      .cls-1 {
        fill: #059055;
      }

      .cls-1, .cls-2, .cls-3 {
        fill-rule: evenodd;
      }

      .cls-3 {
        fill: #00d992;
      }
    </style>
  </defs>
  <g id="Layer_1-2" data-name="Layer 1">
    <g>
      <g>
        <path class="cls-3" d="M268.14,265.36c-46.84,46.9-76.36,111.12-78.08,182.3,13.2,4.38,27.07,5.9,41.79,6.44,39.47-1.92,72.91-12.87,104.42-68.26,6.17-10.95,13.8-20.9,22.62-29.72,8.82-8.82,18.77-16.45,29.72-22.62,55.39-31.51,66.34-64.95,68.26-104.42-.53-14.73-2.06-28.59-6.44-41.79-71.18,1.72-135.4,31.25-182.3,78.08h0Z"/>
        <path class="cls-2" d="M191.58,265.56c46.84,46.84,76.42,111.12,78.08,182.24-13.2,4.38-27.07,5.97-41.73,6.44-39.54-1.86-72.97-12.87-104.49-68.26-6.17-10.95-13.8-20.9-22.62-29.72-8.82-8.82-18.77-16.45-29.72-22.62C15.71,302.18,4.77,268.68,2.91,229.21c.46-14.73,1.99-28.59,6.44-41.79,71.12,1.72,135.33,31.25,182.24,78.15h0Z"/>
        <path class="cls-1" d="M229.79,313.79c24.28,39.07,38.74,84.92,39.87,134.01l-1.86.6-.6.2h0l-.27.07-1,.27-.46.13-.13.07-.66.2-.6.13-.66.2-.6.13-.66.2-.6.13-.66.13c-9.42,2.26-19.11,3.32-29.26,3.85-14.59-.53-28.46-2.06-41.6-6.44,1.19-49.03,15.59-94.8,39.74-133.88h0Z"/>
        <path class="cls-2" d="M268.27,188.81c-46.84-46.9-76.36-111.12-78.08-182.24,13.2-4.38,27.07-5.97,41.79-6.44,39.47,1.86,72.91,12.87,104.42,68.26,6.17,10.88,13.8,20.9,22.62,29.72,8.82,8.76,18.77,16.45,29.72,22.62,55.39,31.45,66.34,64.95,68.26,104.42-.53,14.73-2.06,28.53-6.44,41.79-71.18-1.72-135.4-31.25-182.3-78.15h0Z"/>
        <path class="cls-1" d="M456.81,228.81c-.46,10.81-1.66,21.23-4.25,31.25l-.13.66-.2.6-.13.66-.2.6-.07.13-.13.46-.27,1-.07.27h0l-.13.33c-.2.73-.46,1.46-.66,2.19-49.16-1.19-94.93-15.66-134.01-39.87,39.01-24.21,84.78-38.61,133.88-39.8,4.38,13.14,5.9,26.93,6.37,41.53h0Z"/>
        <path class="cls-3" d="M191.71,188.67c46.9-46.9,76.42-111.12,78.08-182.24-13.2-4.38-27.07-5.97-41.73-6.44-39.54,1.86-72.97,12.8-104.49,68.26-6.17,10.88-13.8,20.9-22.62,29.72-8.82,8.76-18.77,16.39-29.72,22.62C15.84,152.05,4.9,185.55,3.04,225.03c.46,14.66,1.99,28.53,6.44,41.79,71.12-1.72,135.33-31.25,182.24-78.15h0Z"/>
        <path class="cls-1" d="M3.04,225.43c.46,14.53,2.06,28.26,6.44,41.4,48.89-1.19,94.6-15.52,133.61-39.67-39.01-24.15-84.78-38.54-133.74-39.74-4.05,12.07-5.71,24.68-6.3,38.01h0Z"/>
        <path class="cls-1" d="M229.93,140.44c-24.15-39.07-38.54-84.85-39.74-133.88,13.14-4.38,27-5.97,41.6-6.44,10.15.46,19.84,1.53,29.26,3.78l.66.2.6.13.66.13.6.2.66.13.6.2.66.2h.13l.46.13,1,.33.27.07h0l.6.2,1.86.6c-1.13,49.09-15.59,94.93-39.87,134.01h0Z"/>
      </g>
      <g>
        <path d="M110.42,583.53c-4.67-7.31-8.71-12.6-12.13-16.02-5.44-5.6-12.44-8.4-20.68-8.4s-15.24,2.8-20.06,8.24c-3.89,4.67-5.91,9.8-5.91,15.4,0,8.71,7.62,15.86,22.86,21.62l19.59,7.46c22.08,8.24,37.01,18.66,44.94,31.1,5.44,8.86,8.24,18.66,8.24,29.7,0,20.06-7.62,37.01-22.86,50.54-14,12.44-30.95,18.66-50.85,18.66-16.33,0-30.64-4.35-43.23-13.06-14.62-10.11-24.73-27.37-30.33-52.1l41.52-11.04c2.95,12.13,5.91,20.22,8.55,24.1,5.75,8.24,13.69,12.44,23.95,12.44,9.49,0,17.11-3.27,23.02-9.95,4.98-5.6,7.46-11.97,7.46-19.13,0-4.36-1.09-8.09-3.42-11.04-3.58-4.82-11.98-9.64-25.19-14.62l-18.66-7.15c-31.88-12.13-47.9-31.42-47.9-57.85,0-18.2,6.69-33.28,20.22-45.26,13.22-11.66,29.7-17.57,49.14-17.57,21.46,0,39.19,7.78,53.19,23.48,4.2,4.67,8.71,10.89,13.37,18.51l-34.84,21.93Z"/>
        <path d="M307.3,701.88c-16.48,26.59-38.88,39.97-67.03,39.97-22.39,0-40.59-7.93-54.74-23.95-12.91-14.31-19.28-31.57-19.28-51.63,0-23.02,8.09-41.99,24.26-56.92,13.53-12.44,29.39-18.66,47.9-18.66,20.84,0,38.1,7.62,51.94,23.02,12.75,14.31,19.13,32.81,19.13,55.52,0,1.4-.16,5.13-.31,11.2h-101.09c5.13,16.95,15.71,25.35,32.04,25.35,13.53,0,24.1-6.07,31.41-18.04l35.77,14.15ZM269.05,651.96c-5.6-17.11-15.71-25.66-30.48-25.66-15.71,0-25.97,8.55-30.48,25.66h60.96Z"/>
        <path d="M433.43,645.74c-6.84-7.15-12.6-11.98-17.11-14.46-4.67-2.49-10.11-3.73-16.48-3.73-10.73,0-19.44,3.58-26.13,10.89-6.22,6.69-9.33,16.17-9.33,28.3,0,12.91,3.89,22.71,11.66,29.7,6.38,5.75,14.31,8.55,23.79,8.55,6.69,0,12.44-1.4,17.57-4.35,5.13-2.8,10.73-7.78,16.95-14.93l25.97,27.06c-7.31,7.78-14,13.69-20.22,17.57-12.13,7.62-25.66,11.51-40.43,11.51-23.48,0-42.61-8.4-57.39-25.04-12.6-14.31-18.97-31.1-18.97-50.54,0-22.55,8.09-41.37,24.42-56.14,14.31-12.91,31.57-19.44,51.94-19.44,11.35,0,21.62,2.02,30.64,6.22,9.02,4.2,18.82,11.51,29.24,21.77l-26.13,27.06Z"/>
        <path d="M565.31,730.34c-9.8,7.62-20.37,11.51-32.04,11.51-14.46,0-27.22-4.82-38.1-14.46-13.69-12.29-19.6-28.77-19.6-55.52v-76.2h40.75v73.87c0,12.29,1.4,21,4.04,26.13,3.27,6.22,9.64,9.33,18.97,9.33s18.04-4.2,21.62-10.42c2.95-5.13,4.35-14.46,4.35-27.84v-71.07h40.75v141.21h-40.75v-6.53Z"/>
        <path d="M678.68,603.28c7.93-5.75,16.49-8.55,25.66-8.55,3.89,0,8.55.31,14.15,1.09v36.24c-6.07-.47-10.73-.78-14-.78-9.8,0-16.64,2.64-20.22,7.93-3.73,5.44-5.6,15.24-5.6,29.55v68.12h-40.75v-141.21h40.75v7.62Z"/>
        <path d="M867.33,701.88c-16.48,26.59-38.88,39.97-67.03,39.97-22.4,0-40.59-7.93-54.74-23.95-12.91-14.31-19.28-31.57-19.28-51.63,0-23.02,8.09-41.99,24.26-56.92,13.53-12.44,29.39-18.66,47.9-18.66,20.84,0,38.1,7.62,51.94,23.02,12.75,14.31,19.13,32.81,19.13,55.52,0,1.4-.16,5.13-.31,11.2h-101.09c5.13,16.95,15.71,25.35,32.04,25.35,13.53,0,24.11-6.07,31.41-18.04l35.77,14.15ZM829.07,651.96c-5.6-17.11-15.71-25.66-30.48-25.66-15.71,0-25.97,8.55-30.48,25.66h60.96Z"/>
        <path d="M1059.24,571.09c-7.15-7.62-13.69-13.22-19.75-16.8-12.13-7.46-25.66-11.2-40.44-11.2-27.53,0-49.61,10.42-66.09,31.26-12.91,16.33-19.29,35.15-19.29,56.45,0,25.66,8.87,46.97,26.59,63.92,16.33,15.71,35.77,23.64,58.63,23.64,11.82,0,22.39-2.18,31.88-6.69,9.49-4.36,19.28-11.66,29.55-21.93l16.17,16.33c-9.18,9.18-17.73,16.02-25.35,20.53-15.71,9.33-32.97,14-51.79,14-20.69,0-39.66-5.13-56.92-15.55-16.02-9.64-28.62-22.71-38.1-39.19-9.8-17.26-14.62-35.61-14.62-55.05s4.82-37.79,14.62-54.9c9.8-17.26,23.02-30.79,39.81-40.43,16.79-9.8,35.15-14.62,55.05-14.62,14.93,0,28.3,2.64,40.12,7.93,11.82,5.29,23.95,14,36.24,25.97l-16.33,16.33Z"/>
        <path d="M1221.29,616.19c12.29,14,18.51,30.64,18.51,49.92,0,22.55-7.93,41.21-23.95,55.83-13.53,12.44-29.86,18.66-48.83,18.66-21.93,0-39.97-8.09-54.12-24.26-12.29-14-18.51-30.95-18.51-50.7,0-22.08,7.93-40.44,23.95-55.05,13.53-12.44,30.17-18.66,49.92-18.66,21,0,38.72,8.09,53.03,24.26ZM1128.13,631.27c-7.31,9.18-10.89,20.84-10.89,34.99,0,16.49,4.98,29.7,14.78,39.5,9.49,9.49,21.15,14.31,34.99,14.31,16.49,0,29.55-6.22,39.19-18.66,7.15-9.49,10.73-21.31,10.73-35.61,0-16.02-4.82-29.08-14.62-38.88-9.49-9.49-21.46-14.31-36.08-14.31-15.71,0-28.3,6.22-38.1,18.66Z"/>
        <path d="M1405.58,736.87h-22.71v-18.51c-13.22,14.77-29.86,22.24-49.61,22.24-12.29,0-23.79-3.11-34.68-9.49-11.66-6.69-20.68-15.86-27.21-27.68-6.38-11.35-9.49-23.64-9.49-37.17,0-22.55,7.93-41.06,23.95-55.67,13.69-12.44,29.55-18.66,47.43-18.66,19.44,0,35.93,7.46,49.61,22.39v-89.73h22.71v212.28ZM1295.63,631.12c-7.31,9.18-10.89,20.84-10.89,34.99,0,16.64,4.98,29.86,14.78,39.66,9.49,9.49,20.99,14.31,34.84,14.31,16.02,0,28.77-6.22,38.1-18.82,7-9.33,10.42-21.15,10.42-35.3,0-16.17-4.67-29.24-14.15-39.19-9.02-9.49-20.84-14.31-35.3-14.31-15.4,0-27.99,6.22-37.79,18.66Z"/>
        <path d="M1460.01,675.91c.78,5.44,2.02,10.58,4.04,15.24,3.89,9.49,9.95,16.64,17.88,21.77,7.31,4.82,15.55,7.15,24.88,7.15,19.13,0,33.44-8.4,42.92-25.04l20.22,8.55c-13.84,24.11-36.23,37.01-62.98,37.01-21.62,0-39.19-8.09-52.72-24.42-11.66-14-17.57-30.79-17.57-50.39,0-13.22,2.95-25.5,8.86-36.86,6.38-11.82,14.93-20.99,25.97-27.68,10.42-6.22,21.62-9.33,33.75-9.33,19.75,0,35.93,7.15,48.52,21.62,12.6,14.46,18.97,32.81,18.97,55.36,0,1.4,0,3.73-.15,7h-112.6ZM1550.06,656.47c-.78-5.91-2.18-11.04-3.89-15.24-3.89-9.49-9.64-16.64-17.11-21.77-7-4.67-14.93-7-23.64-7-11.97,0-21.93,4.04-30.17,11.97-8.24,7.93-13.22,18.66-15.24,32.04h90.04Z"/>
      </g>
      <g>
        <path d="M75.45,856.46v-5.77h35.45v3.2c0,10.08-2.09,18.7-6.19,25.86-3.48,5.91-8.06,10.57-13.83,13.9-6.12,3.55-13.14,5.28-21.13,5.28-8.83,0-16.96-2.16-24.33-6.4-7.44-4.31-13.35-10.29-17.73-18.01-4.31-7.58-6.46-15.71-6.46-24.4s2.22-17.24,6.74-24.96c4.31-7.44,10.01-13.21,17.17-17.45,7.44-4.31,15.5-6.47,24.19-6.47,12.1,0,22.8,4.52,32.12,13.56l-4.24,4.24c-7.86-7.99-17.24-11.96-28.02-11.96-12.44,0-22.66,4.52-30.66,13.63-7.3,8.27-10.98,18.08-10.98,29.41,0,8,1.95,15.36,5.77,22.04,3.75,6.53,8.83,11.68,15.29,15.36,6.4,3.68,13.35,5.56,20.86,5.56,9.11,0,16.75-2.64,23.01-7.92,7.99-6.74,11.61-15.43,12.1-28.71h-29.13Z"/>
        <path d="M130.8,868.49c.35,5.28,1.81,10.01,4.45,14.18,2.16,3.34,4.94,5.98,8.48,7.92,3.48,1.88,7.37,2.78,11.68,2.78,8.9,0,15.92-3.75,21.06-11.33l5.42,2.29c-6.6,9.73-15.36,14.6-26.42,14.6-9.11,0-16.61-3.27-22.45-9.87-5.63-6.33-8.41-13.97-8.41-23.08,0-10.36,3.55-18.77,10.57-25.38,5.49-5.07,11.89-7.58,19.33-7.58,8.41,0,15.43,3.13,21.06,9.45,5.21,5.84,8.34,15.02,8.34,24.47v1.53h-53.11ZM177.93,863.42c-.77-6.54-2.57-11.82-5.42-15.85-3.96-5.63-10.71-9.04-17.94-9.04-5.49,0-10.43,1.74-14.67,5.28-5.56,4.59-8.62,11.12-9.11,19.6h47.13Z"/>
        <path d="M205.6,834.43v10.29c4.87-7.79,12.17-11.68,21.97-11.68,7.65,0,13.83,2.5,18.49,7.58,4.52,4.94,6.4,11.4,6.4,22.59v34.34h-5.91v-33.09c0-7.58-1.04-13.28-3.13-17.1-1.46-2.57-3.48-4.66-6.19-6.12-3.13-1.67-6.67-2.5-10.5-2.5-7.72,0-14.74,3.68-17.87,9.25-2.15,3.89-3.27,9.87-3.27,18.01v31.56h-5.91v-63.12h5.91Z"/>
        <path d="M274.43,868.49c.35,5.28,1.81,10.01,4.45,14.18,2.16,3.34,4.94,5.98,8.48,7.92,3.48,1.88,7.37,2.78,11.68,2.78,8.9,0,15.92-3.75,21.06-11.33l5.42,2.29c-6.6,9.73-15.36,14.6-26.42,14.6-9.11,0-16.61-3.27-22.45-9.87-5.63-6.33-8.41-13.97-8.41-23.08,0-10.36,3.55-18.77,10.57-25.38,5.49-5.07,11.89-7.58,19.33-7.58,8.41,0,15.43,3.13,21.06,9.45,5.21,5.84,8.34,15.02,8.34,24.47v1.53h-53.11ZM321.57,863.42c-.76-6.54-2.57-11.82-5.42-15.85-3.96-5.63-10.71-9.04-17.94-9.04-5.49,0-10.43,1.74-14.67,5.28-5.56,4.59-8.62,11.12-9.11,19.6h47.13Z"/>
        <path d="M343.33,834.43h5.91v10.29c1.46-2.29,2.92-4.17,4.52-5.56,1.74-1.53,4.24-2.78,7.37-3.68,3.13-.9,6.19-1.25,9.04-1.04v5.35h-1.53c-7.02,0-13.21,3.34-16.2,8.62-1.18,2.22-2.02,4.66-2.5,7.3-.49,2.71-.7,6.4-.7,11.05v30.8h-5.91v-63.12Z"/>
        <path d="M438.16,897.55h-5.91v-12.44c-3.13,4.24-6.19,7.3-9.04,9.18-4.94,3.13-10.29,4.66-16.2,4.66-9.32,0-17.03-3.48-23.22-10.43-5.63-6.26-8.41-13.76-8.41-22.59,0-10.08,3.55-18.35,10.71-24.82,5.91-5.35,12.93-8.06,20.92-8.06,10.57,0,18.01,4.1,25.24,13.76v-12.37h5.91v63.12ZM393.8,842.14c-3.82,2.29-6.67,5.28-8.69,8.97-2.43,4.38-3.61,9.32-3.61,14.81,0,8.97,2.85,15.99,8.62,21.06,4.8,4.24,10.5,6.4,17.03,6.4,7.51,0,13.7-2.71,18.56-8.06,4.52-4.94,6.74-11.47,6.74-19.6,0-8.9-2.85-15.92-8.55-21-4.66-4.1-10.29-6.19-16.96-6.19-4.73,0-9.11,1.18-13.14,3.62Z"/>
        <path d="M459.57,839.85h-7.58v-5.42h7.58v-15.99l5.91-2.36v18.35h11.12v5.42h-11.12v39.21c0,9.46,2.5,13.56,8.34,13.56,1.04,0,2.29-.14,3.75-.49v5.42c-1.81.49-3.41.76-4.87.76-3.68,0-6.74-1.32-9.18-3.96-2.64-2.92-3.96-7.99-3.96-15.29v-39.21Z"/>
        <path d="M491.55,868.49c.35,5.28,1.81,10.01,4.45,14.18,2.16,3.34,4.94,5.98,8.48,7.92,3.48,1.88,7.37,2.78,11.68,2.78,8.9,0,15.92-3.75,21.06-11.33l5.42,2.29c-6.6,9.73-15.36,14.6-26.42,14.6-9.11,0-16.61-3.27-22.45-9.87-5.63-6.33-8.41-13.97-8.41-23.08,0-10.36,3.55-18.77,10.57-25.38,5.49-5.07,11.89-7.58,19.33-7.58,8.41,0,15.43,3.13,21.06,9.45,5.21,5.84,8.34,15.02,8.34,24.47v1.53h-53.11ZM538.69,863.42c-.77-6.54-2.57-11.82-5.42-15.85-3.96-5.63-10.71-9.04-17.94-9.04-5.49,0-10.43,1.74-14.67,5.28-5.56,4.59-8.62,11.12-9.11,19.6h47.13Z"/>
        <path d="M567.47,893.86c0,2.57-2.15,4.8-4.73,4.8s-4.73-2.22-4.73-4.8,2.09-4.73,4.8-4.73c2.5,0,4.66,2.16,4.66,4.73Z"/>
        <path d="M669.88,808.36h-36.36v38.17h33.16v5.77h-33.16v45.26h-6.26v-94.89h42.62v5.7Z"/>
        <path d="M734.95,843.46c5.63,6.26,8.41,13.76,8.41,22.46,0,10.15-3.55,18.49-10.71,24.96-5.91,5.35-12.93,8.06-21.13,8.06-9.52,0-17.31-3.48-23.5-10.43-5.63-6.33-8.41-13.83-8.41-22.59s2.57-15.71,7.72-21.76c6.33-7.44,14.53-11.12,24.61-11.12,9.11,0,16.82,3.48,23.01,10.43ZM692.47,846.73c-4.52,4.94-6.74,11.33-6.74,19.19,0,8.97,2.85,16.06,8.62,21.13,4.8,4.24,10.5,6.33,17.1,6.33,7.72,0,14.11-2.71,19.05-8.13,4.52-4.94,6.74-11.47,6.74-19.6,0-8.69-2.85-15.64-8.62-20.72-4.73-4.24-10.57-6.33-17.59-6.33s-13.49,2.71-18.56,8.13Z"/>
        <path d="M759.15,834.43h5.91v10.29c1.46-2.29,2.92-4.17,4.52-5.56,1.74-1.53,4.24-2.78,7.37-3.68,3.13-.9,6.19-1.25,9.04-1.04v5.35h-1.53c-7.02,0-13.21,3.34-16.2,8.62-1.18,2.22-2.02,4.66-2.5,7.3-.49,2.71-.7,6.4-.7,11.05v30.8h-5.91v-63.12Z"/>
        <path d="M804.61,834.43v10.29c4.24-7.79,10.91-11.68,20.02-11.68s16.27,4.45,20.37,13.28c4.87-8.83,12.17-13.28,21.97-13.28s16.13,3.68,20.23,10.98c2.43,4.38,3.69,10.78,3.69,19.19v34.34h-5.91v-33.09c0-7.86-1.04-13.76-3.13-17.66-2.71-5-8.27-8.06-14.67-8.06-6.88,0-13.07,3.41-16.06,8.69-2.15,3.96-3.27,10.15-3.27,18.56v31.56h-5.91v-33.09c0-7.86-1.04-13.7-3.13-17.66-1.32-2.43-3.34-4.45-5.91-5.91-2.64-1.46-5.63-2.16-8.9-2.16-6.95,0-13.07,3.34-16.2,8.97-2.15,3.68-3.2,9.73-3.2,18.28v31.56h-5.91v-63.12h5.91Z"/>
        <path d="M969.45,897.55h-5.91v-12.44c-3.13,4.24-6.19,7.3-9.04,9.18-4.94,3.13-10.29,4.66-16.2,4.66-9.31,0-17.03-3.48-23.22-10.43-5.63-6.26-8.41-13.76-8.41-22.59,0-10.08,3.54-18.35,10.71-24.82,5.91-5.35,12.93-8.06,20.92-8.06,10.57,0,18.01,4.1,25.24,13.76v-12.37h5.91v63.12ZM925.1,842.14c-3.82,2.29-6.67,5.28-8.69,8.97-2.43,4.38-3.62,9.32-3.62,14.81,0,8.97,2.85,15.99,8.62,21.06,4.8,4.24,10.5,6.4,17.03,6.4,7.51,0,13.7-2.71,18.56-8.06,4.52-4.94,6.74-11.47,6.74-19.6,0-8.9-2.85-15.92-8.55-21-4.66-4.1-10.29-6.19-16.96-6.19-4.73,0-9.11,1.18-13.14,3.62Z"/>
        <path d="M990.87,839.85h-7.58v-5.42h7.58v-15.99l5.91-2.36v18.35h11.12v5.42h-11.12v39.21c0,9.46,2.5,13.56,8.34,13.56,1.04,0,2.29-.14,3.75-.49v5.42c-1.81.49-3.41.76-4.87.76-3.68,0-6.74-1.32-9.18-3.96-2.64-2.92-3.96-7.99-3.96-15.29v-39.21Z"/>
        <path d="M1031.96,893.86c0,2.57-2.16,4.8-4.73,4.8s-4.73-2.22-4.73-4.8,2.09-4.73,4.8-4.73c2.5,0,4.66,2.16,4.66,4.73Z"/>
        <path d="M1133.94,816.91c-5.08-6.6-11.19-9.94-18.42-9.94-6.33,0-11.4,2.15-15.22,6.46-3.2,3.62-4.8,7.72-4.8,12.24,0,7.72,5.29,13.63,15.78,17.73l9.59,3.75c14.74,5.77,21.34,13.28,21.34,24.19,0,8.13-2.99,14.95-9.04,20.37-5.35,4.8-11.96,7.23-19.74,7.23-13.56,0-23.36-7.72-27.32-21.34l6.05-1.74c1.32,4.45,3.27,8,5.7,10.64,4.24,4.38,9.52,6.6,15.85,6.6,6.81,0,12.38-2.43,16.75-7.23,3.69-4.1,5.49-8.9,5.49-14.39,0-4.38-1.39-8.06-4.24-11.05-2.85-2.99-7.58-5.77-14.32-8.48l-9.25-3.62c-7.65-2.99-12.86-6.81-15.71-11.33-2.02-3.34-3.06-7.09-3.06-11.33,0-7.23,2.57-13.14,7.79-17.73,5.07-4.45,11.26-6.67,18.7-6.67,9.53,0,17.24,4.17,23.01,12.44l-4.94,3.2Z"/>
        <path d="M1165.86,844.71c4.87-7.79,12.17-11.68,21.97-11.68,7.65,0,13.83,2.5,18.49,7.58,4.52,4.94,6.4,11.47,6.4,22.59v34.34h-5.91v-33.09c0-7.58-1.04-13.28-3.13-17.1-1.46-2.57-3.48-4.66-6.19-6.12-3.13-1.67-6.67-2.5-10.5-2.5-7.72,0-14.74,3.68-17.87,9.25-2.16,3.89-3.27,9.87-3.27,18.01v31.56h-5.91v-94.89h5.91v42.06Z"/>
        <path d="M1240.32,813.71c0,2.71-2.22,4.87-4.8,4.87s-4.8-2.22-4.8-4.8c0-2.71,2.15-4.87,4.87-4.87s4.73,2.22,4.73,4.8ZM1238.44,834.43v63.12h-5.91v-63.12h5.91Z"/>
        <path d="M1258.39,930.78v-96.35h5.91v12.37c6.33-9.18,14.74-13.76,25.17-13.76,9.38,0,17.17,3.48,23.36,10.43,5.56,6.19,8.34,13.7,8.34,22.46,0,10.15-3.54,18.49-10.71,24.96-5.91,5.35-12.93,8.06-20.99,8.06-10.36,0-18.7-4.59-25.17-13.83v45.67h-5.91ZM1270.91,846.52c-4.52,4.94-6.74,11.4-6.74,19.4,0,9.11,2.85,16.2,8.55,21.27,4.66,4.1,10.22,6.19,16.69,6.19,7.58,0,13.9-2.71,18.91-8.2,4.52-4.94,6.74-11.26,6.74-19.12s-2.15-14.18-6.46-19.12c-4.94-5.63-11.47-8.41-19.54-8.41-7.23,0-13.28,2.64-18.14,7.99Z"/>
        <path d="M1346.55,893.86c0,2.57-2.15,4.8-4.73,4.8s-4.73-2.22-4.73-4.8,2.09-4.73,4.8-4.73c2.5,0,4.66,2.16,4.66,4.73Z"/>
      </g>
    </g>
  </g>
</svg>